<svg width="184" height="59" viewBox="0 0 184 59" fill="none" xmlns="http://www.w3.org/2000/svg">
<g clip-path="url(#clip0_99_35)">
<path d="M34.5017 37.2372H32.6703C28.7875 37.2372 24.908 37.2372 21.0252 37.2372C20.6917 37.2372 20.5982 37.1597 20.6016 36.8194C20.6016 33.9218 20.6016 31.0242 20.6016 28.1266C20.6169 27.6817 20.5454 27.2382 20.3909 26.8213C20.2366 26.4042 20.0024 26.0221 19.7018 25.6966C19.0947 25.0392 18.2539 24.6522 17.3643 24.621C16.4748 24.5897 15.6093 24.9166 14.9584 25.5298C14.3074 26.143 13.9243 26.9924 13.8935 27.8908C13.8935 30.8401 13.8935 33.7904 13.8935 36.7418C13.8935 37.1158 13.83 37.2405 13.423 37.2372C9.08658 37.2372 4.75011 37.2372 0.413629 37.2372H0L17.1091 0L34.5017 37.2372Z" fill="#A62581"/>
<path d="M43.3214 16.1459C43.6992 15.4469 44.1935 14.819 44.7824 14.2896C45.895 13.3719 47.2403 12.7882 48.6652 12.6049C50.3977 12.314 52.1759 12.5051 53.809 13.1574C54.6514 13.5059 55.4161 14.0215 56.0579 14.6737C56.6995 15.326 57.2053 16.1015 57.545 16.9546C57.5884 17.0524 57.6284 17.15 57.6751 17.2477C57.6751 17.2713 57.7085 17.2881 57.7552 17.342C58.09 16.7614 58.468 16.2072 58.8859 15.6844C60.2393 14.02 62.1713 12.9413 64.2865 12.6689C66.3117 12.3442 68.3854 12.5424 70.3143 13.245C73.3531 14.421 75.0544 16.7524 75.8649 19.8522C76.1842 21.1181 76.34 22.4204 76.3286 23.7269C76.3286 28.1743 76.3286 32.6217 76.3286 37.0658C76.3286 37.4027 76.2252 37.4902 75.9017 37.4869C74.4739 37.4869 73.0462 37.4668 71.6186 37.4869C71.285 37.4869 71.1949 37.4027 71.1949 37.0624C71.1949 32.6824 71.1949 28.3023 71.1949 23.9223C71.2445 22.584 70.966 21.2542 70.3843 20.0509C70.008 19.2716 69.4262 18.6121 68.7031 18.1448C67.9798 17.6776 67.143 17.4209 66.2847 17.4028C62.502 17.15 60.5839 19.9567 60.1169 22.3691C60.0067 22.9644 59.9531 23.5692 59.9567 24.1749C59.9567 28.4573 59.9567 32.743 59.9567 37.0287C59.9567 37.3657 59.8733 37.4802 59.5164 37.4735C58.0931 37.4532 56.6665 37.4532 55.2366 37.4735C54.9031 37.4735 54.8197 37.3757 54.8197 37.0456C54.8197 32.6789 54.8197 28.3136 54.8197 23.9492C54.8197 22.1096 54.3394 20.4384 53.1185 19.0334C52.6928 18.528 52.1681 18.1173 51.5772 17.8274C50.9864 17.5374 50.3424 17.3745 49.6859 17.3489C46.4303 17.1769 43.9284 19.2827 43.4381 22.5577C43.3514 23.1569 43.308 23.7615 43.308 24.367C43.308 28.5719 43.308 32.7756 43.308 36.9781C43.308 37.369 43.2046 37.4701 42.821 37.4633C41.42 37.4398 40.0189 37.4633 38.6213 37.4633C38.3311 37.4633 38.2344 37.3993 38.2344 37.086C38.2344 29.1525 38.2344 21.2167 38.2344 13.2787C38.2344 12.989 38.2943 12.8879 38.6046 12.8913C39.939 12.9081 41.2999 12.8913 42.6476 12.8913C42.8844 12.8913 42.9812 12.9553 42.9979 13.1979C43.0979 14.1548 43.2079 15.1015 43.3214 16.1459Z" fill="#7C70AF"/>
<path d="M87.9437 16.8799C88.7626 15.6277 89.8572 14.5837 91.1418 13.8297C92.4265 13.0758 93.8664 12.6321 95.349 12.5335C102.177 11.9035 107.084 16.1656 108.358 21.735C109.152 25.2391 108.919 28.6858 107.204 31.9001C105.426 35.2222 102.651 37.1999 98.9383 37.8064C96.4943 38.2548 93.9744 37.987 91.6764 37.0348C90.1586 36.3913 89.2379 35.6568 88.007 34.0463C87.9069 34.1811 87.9503 34.3293 87.9503 34.4607C87.9503 39.0969 87.9503 43.7296 87.9503 48.3658C87.9503 48.7903 87.8235 48.8779 87.4333 48.8712C86.0723 48.8463 84.7112 48.8463 83.3503 48.8712C82.9601 48.8712 82.8333 48.7903 82.8333 48.3658C82.8466 39.9695 82.8466 31.5756 82.8333 23.1838C82.8333 19.9224 82.8333 16.6609 82.8333 13.413C82.8333 13.076 82.93 12.985 83.2568 12.9884C84.5912 13.0052 85.9255 12.9884 87.2598 12.9884C87.51 12.9884 87.6367 13.0187 87.6534 13.3253C87.7067 14.3057 87.7934 15.2862 87.8702 16.2633C87.8935 16.425 87.9169 16.607 87.9437 16.8799ZM103.638 25.2087C103.638 24.9122 103.638 24.6157 103.638 24.3192C103.627 24.1315 103.603 23.9447 103.568 23.7599C103.215 21.4419 102.087 19.6293 100.066 18.4399C98.4879 17.5167 96.7634 17.3111 94.9688 17.4964C93.8334 17.5832 92.7368 17.951 91.7756 18.5674C90.8146 19.1838 90.0187 20.0299 89.4581 21.0308C88.5678 22.5801 88.2069 24.382 88.4307 26.1588C88.5829 27.9892 89.392 29.7002 90.7057 30.9701C93.1174 33.3657 96.9234 33.5679 99.5254 32.2606C102.377 30.8253 103.638 28.3691 103.638 25.2087Z" fill="#7C70AF"/>
<path d="M178.882 33.6654C178.847 33.6904 178.815 33.7197 178.786 33.753C177.596 35.8655 175.704 37.0312 173.448 37.6613C168.829 38.9619 162.858 37.4727 159.92 32.5838C158.948 30.9206 158.363 29.0567 158.208 27.1324C157.946 25.0284 158.105 22.8928 158.675 20.852C160.01 16.4181 163.054 13.8035 167.452 12.7489C169.568 12.196 171.798 12.2509 173.887 12.9073C175.948 13.5811 177.666 14.7503 178.849 16.6977C178.922 16.5301 178.955 16.348 178.946 16.1653C178.98 15.2254 179.023 14.2819 179.033 13.3386C179.033 13.0421 179.119 12.9511 179.42 12.9545C180.807 12.9713 182.196 12.9747 183.579 12.9545C183.913 12.9545 184 13.0488 184 13.3823C184 19.7413 184 26.1003 184 32.4591C184 33.9922 184 35.5286 184 37.0649C184 37.3446 183.96 37.4693 183.636 37.466C182.262 37.4457 180.888 37.466 179.516 37.466C179.207 37.466 179.136 37.3547 179.126 37.0717C179.08 36.0205 179.013 34.9727 178.95 33.9248C178.959 33.8793 178.959 33.8321 178.947 33.787C178.935 33.742 178.913 33.7003 178.882 33.6654ZM163.205 26.1991C163.205 28.0926 164.259 30.4881 166.754 32.1121C168.479 33.2374 170.397 33.5036 172.399 33.2307C173.983 33.0117 175.46 32.4457 176.545 31.2428C178.493 29.0898 179.363 26.5259 178.79 23.6183C178.533 22.0802 177.866 20.6417 176.861 19.4571C175.647 18.1221 173.98 17.2991 172.191 17.1525C170.21 16.9269 168.332 17.2166 166.64 18.3453C164.215 19.9625 163.199 22.3042 163.192 26.2058L163.205 26.1991Z" fill="#7C70AF"/>
<path d="M143.711 16.1796C144.279 15.1581 145.078 14.2883 146.046 13.6425C147.256 12.8984 148.634 12.4817 150.049 12.433C151.927 12.3251 153.745 12.5677 155.426 13.4977C155.845 13.7349 156.243 14.0088 156.613 14.3164C156.73 14.414 156.83 14.4982 156.734 14.6836C155.994 16.0988 155.263 17.5205 154.512 18.9694C153.694 18.2789 152.712 17.8146 151.664 17.6216C148.951 17.187 146.566 17.7631 144.821 20.0744C144.154 21.0259 143.774 22.1534 143.731 23.319C143.701 23.7199 143.701 24.1244 143.701 24.5286C143.701 28.693 143.701 32.8552 143.701 37.0152C143.701 37.3756 143.605 37.4734 143.254 37.4667C141.839 37.4464 140.425 37.4667 139.011 37.4667C138.714 37.4667 138.601 37.4161 138.601 37.0758C138.601 29.1693 138.601 21.2615 138.601 13.3528C138.601 13.0664 138.65 12.9552 138.968 12.9585C140.302 12.9788 141.636 12.9788 142.971 12.9585C143.304 12.9585 143.371 13.0933 143.394 13.3763C143.507 14.2726 143.605 15.1655 143.711 16.1796Z" fill="#7C70AF"/>
<path d="M120.067 16.769C119.583 16.8499 119.093 16.9207 118.613 17.015C118 17.1301 117.422 17.3868 116.924 17.7651C116.425 18.1432 116.021 18.6325 115.74 19.1949C115.172 20.2817 114.823 21.4715 114.713 22.6956C114.472 24.813 114.547 26.9551 114.937 29.05C115.04 29.5771 115.187 30.0945 115.377 30.5965C116.084 32.5238 117.595 33.3188 119.483 33.6019C120.091 33.681 120.705 33.7148 121.318 33.703C125.134 33.703 128.95 33.703 132.766 33.703C133.099 33.703 133.2 33.7669 133.196 34.1174C133.174 35.3169 133.196 36.5163 133.196 37.7158C133.196 37.9719 133.133 38.0527 132.863 38.0527C128.743 38.0527 124.62 38.0729 120.497 38.0258C118.813 38.0055 117.161 37.6888 115.787 36.6072C114.546 35.6504 113.822 34.3195 113.262 32.9011C112.658 31.2726 112.305 29.5602 112.215 27.8236C112.058 25.7947 112.087 23.7554 112.301 21.732C112.459 19.9056 112.929 18.1205 113.689 16.4557C114.78 14.1815 116.584 12.9415 119.026 12.581C119.367 12.515 119.714 12.4856 120.06 12.4934C120.065 13.9175 120.067 15.3427 120.067 16.769Z" fill="#7C70AF"/>
<path d="M126.505 22.6816C128.61 22.6816 130.718 22.6816 132.823 22.6816C133.123 22.6816 133.2 22.7625 133.193 23.0625C133.193 24.2753 133.193 25.4849 133.193 26.6978C133.193 26.9708 133.11 27.0348 132.86 27.0348C128.608 27.0348 124.356 27.0348 120.104 27.0348C119.84 27.0348 119.77 26.9539 119.77 26.6978C119.77 25.4849 119.787 24.2753 119.77 23.0625C119.77 22.7457 119.87 22.6885 120.157 22.6918C122.265 22.685 124.387 22.6816 126.505 22.6816Z" fill="#A62581"/>
<path d="M120.067 16.7689C120.067 15.3403 120.067 13.9129 120.067 12.4865C120.237 12.4076 120.427 12.3841 120.611 12.4192C124.691 12.4192 128.77 12.4192 132.847 12.4192C133.126 12.4192 133.207 12.4865 133.203 12.7561C133.203 13.9825 133.203 15.2055 133.203 16.4319C133.203 16.6442 133.203 16.7689 132.917 16.7689C128.629 16.7666 124.346 16.7666 120.067 16.7689Z" fill="#A62581"/>
</g>
<defs>
<clipPath id="clip0_99_35">
<rect width="184" height="59" fill="white"/>
</clipPath>
</defs>
</svg>
